<svg xmlns:xlink="http://www.w3.org/1999/xlink" xmlns="http://www.w3.org/2000/svg" xmlns:svg="http://www.w3.org/2000/svg" version="1.1" id="svg2" xml:space="preserve" width="510" height="158" viewBox="0 0 509.99999 158"><defs id="defs6"><clipPath clipPathUnits="userSpaceOnUse" id="clipPath16"><path d="M 0,595.276 H 841.89 V 0 H 0 Z" id="path14"/></clipPath></defs><g id="g8" transform="matrix(1.3333333,0,0,-1.3333333,0,793.70133)"><g id="g2915" transform="matrix(0.97183117,0,0,0.97183117,-60.517776,246.77276)"><g id="g18" transform="translate(210.3379,286.8195)"><path d="m 0,0 h -10.604 c -1.955,0 -3.538,1.583 -3.538,3.537 v 57.936 c 0,1.954 1.583,3.537 3.538,3.537 H 0 c 1.954,0 3.538,-1.583 3.538,-3.537 V 3.537 C 3.538,1.583 1.954,0 0,0" style="fill:#3572c2;fill-opacity:1;fill-rule:nonzero;stroke:none" id="path20"/></g><g id="g22" transform="translate(278.2412,301.7927)"><path d="m 0,0 c 0,-8.061 -6.088,-14.861 -14.11,-15.646 -3.58,-0.35 -7.472,-0.524 -11.674,-0.524 -6.629,0 -11.971,0.952 -16.022,2.854 -4.051,1.902 -7.169,5.279 -9.346,10.129 -2.18,4.849 -3.27,11.418 -3.27,19.706 0,12.277 2.332,21.148 6.999,26.612 4.664,5.463 12.308,8.195 22.929,8.195 6.699,0 12.495,-0.401 17.39,-1.203 1.867,-0.306 3.176,-2.005 2.967,-3.886 l -0.717,-6.463 c -0.216,-1.943 -1.968,-3.332 -3.912,-3.122 -4.185,0.452 -8.2,0.678 -12.045,0.678 -2.64,0 -4.82,-0.23 -6.539,-0.691 -1.718,-0.46 -3.314,-1.351 -4.788,-2.67 -1.472,-1.321 -2.548,-3.315 -3.222,-5.986 -0.676,-2.67 -1.013,-6.063 -1.013,-10.175 0,-5.465 0.599,-9.701 1.795,-12.707 1.197,-3.009 2.731,-4.989 4.604,-5.94 1.872,-0.952 4.374,-1.427 7.505,-1.427 h 0.061 c 3.287,0.005 5.925,2.729 5.925,6.016 v 3.008 h -5.302 c -1.954,0 -3.538,1.584 -3.538,3.537 v 7.475 c 0,1.954 1.584,3.537 3.538,3.537 H -3.538 C -1.584,21.307 0,19.724 0,17.77 Z" style="fill:#3572c2;fill-opacity:1;fill-rule:nonzero;stroke:none" id="path24"/></g><g id="g26" transform="translate(329.9521,286.8195)"><path d="m 0,0 h -37.217 c -1.953,0 -3.537,1.583 -3.537,3.537 v 57.936 c 0,1.954 1.584,3.537 3.537,3.537 H -1.75 c 1.954,0 3.538,-1.583 3.538,-3.537 v -7.659 c 0,-1.953 -1.584,-3.537 -3.538,-3.537 h -21.324 v -9.392 h 19.39 c 1.955,0 3.538,-1.584 3.538,-3.538 v -7.658 c 0,-1.954 -1.583,-3.538 -3.538,-3.538 h -19.39 V 14.733 H 0 c 1.954,0 3.538,-1.584 3.538,-3.538 V 3.537 C 3.538,1.583 1.954,0 0,0" style="fill:#3572c2;fill-opacity:1;fill-rule:nonzero;stroke:none" id="path28"/></g><g id="g30" transform="translate(360.9297,337.7414)"><path d="m 0,0 v -13.537 c 0.797,-0.061 2.057,-0.091 3.775,-0.091 3.07,0 5.371,0.244 6.907,0.736 2.516,0.859 3.775,2.823 3.775,5.893 0,3.499 -1.197,5.678 -3.592,6.539 C 9.515,0.03 7.366,0.276 4.42,0.276 3.253,0.276 1.78,0.184 0,0 m -3.537,-50.922 h -10.514 c -1.953,0 -3.537,1.583 -3.537,3.537 v 57.75 c 0,1.887 1.478,3.445 3.362,3.535 5.24,0.248 10.81,0.372 16.712,0.372 9.393,0 16.267,-0.92 20.626,-2.762 6.263,-2.64 9.393,-8.471 9.393,-17.496 0,-2.21 -0.169,-4.205 -0.506,-5.985 -0.338,-1.781 -0.937,-3.561 -1.796,-5.341 -0.86,-1.781 -2.134,-3.331 -3.821,-4.65 -1.69,-1.321 -3.791,-2.349 -6.308,-3.085 -4.359,-1.228 -9.853,-1.842 -16.482,-1.842 L 0,-26.888 v -1.409 -1.139 -17.949 c 0,-1.954 -1.584,-3.537 -3.537,-3.537" style="fill:#3572c2;fill-opacity:1;fill-rule:nonzero;stroke:none" id="path32"/></g><g id="g34" transform="translate(419.4951,337.7414)"><path d="m 0,0 v -13.537 c 0.797,-0.061 2.056,-0.091 3.775,-0.091 3.069,0 5.371,0.244 6.907,0.736 2.515,0.859 3.775,2.823 3.775,5.893 0,3.499 -1.197,5.678 -3.592,6.539 C 9.515,0.03 7.366,0.276 4.42,0.276 3.253,0.276 1.779,0.184 0,0 m -3.538,-50.922 h -10.513 c -1.954,0 -3.538,1.583 -3.538,3.537 v 57.75 c 0,1.887 1.478,3.445 3.363,3.535 5.239,0.248 10.81,0.372 16.712,0.372 9.393,0 16.267,-0.92 20.626,-2.762 6.262,-2.64 9.393,-8.471 9.393,-17.496 0,-2.21 -0.17,-4.205 -0.507,-5.985 -0.338,-1.781 -0.936,-3.561 -1.795,-5.341 -0.86,-1.781 -2.134,-3.331 -3.821,-4.65 -1.69,-1.321 -3.792,-2.349 -6.308,-3.085 -4.36,-1.228 -9.853,-1.842 -16.483,-1.842 L 0,-26.888 v -20.497 c 0,-1.954 -1.584,-3.537 -3.538,-3.537" style="fill:#3572c2;fill-opacity:1;fill-rule:nonzero;stroke:none" id="path36"/></g><path d="m 199.174,263.771 h -2.978 v 12.82 h 2.978 z" style="fill:#a7a5a6;fill-opacity:1;fill-rule:nonzero;stroke:none" id="path38"/><g id="g40" transform="translate(208.5254,263.7707)"><path d="M 0,0 H -2.887 V 12.82 H 1.29 C 3.529,7.711 4.806,4.69 5.121,3.759 5.072,4.933 5.048,7.954 5.048,12.82 H 7.899 V 0 H 3.959 C 1.707,5.218 0.369,8.353 -0.055,9.406 -0.018,8.292 0,5.157 0,0" style="fill:#a7a5a6;fill-opacity:1;fill-rule:nonzero;stroke:none" id="path42"/></g><g id="g44" transform="translate(228.3008,271.3605)"><path d="m 0,0 c 1.21,-0.326 2.033,-0.744 2.47,-1.252 0.435,-0.509 0.653,-1.338 0.653,-2.488 0,-1.332 -0.379,-2.346 -1.135,-3.042 -0.757,-0.696 -2.031,-1.044 -3.822,-1.044 -1.659,0 -3.087,0.194 -4.286,0.581 l 0.436,2.288 c 1.38,-0.303 2.663,-0.454 3.85,-0.454 0.738,0 1.237,0.121 1.498,0.363 0.26,0.242 0.39,0.575 0.39,0.999 0,0.4 -0.094,0.696 -0.282,0.89 -0.187,0.193 -0.572,0.357 -1.152,0.49 l -1.508,0.345 c -1.052,0.23 -1.828,0.636 -2.324,1.217 -0.496,0.581 -0.744,1.44 -0.744,2.578 0,1.259 0.369,2.24 1.107,2.942 0.739,0.702 1.961,1.053 3.668,1.053 1.417,0 2.682,-0.127 3.795,-0.381 L 2.324,2.779 C 1.113,2.948 -0.062,3.033 -1.199,3.033 -1.853,3.033 -2.301,2.927 -2.542,2.716 -2.785,2.503 -2.905,2.18 -2.905,1.744 c 0,-0.339 0.081,-0.617 0.245,-0.836 0.163,-0.218 0.505,-0.393 1.025,-0.526 z" style="fill:#a7a5a6;fill-opacity:1;fill-rule:nonzero;stroke:none" id="path46"/></g><g id="g48" transform="translate(241.9199,263.7707)"><path d="M 0,0 H -2.997 V 10.278 H -6.465 V 12.82 H 3.504 V 10.278 H 0 Z" style="fill:#a7a5a6;fill-opacity:1;fill-rule:nonzero;stroke:none" id="path50"/></g><path d="m 254.014,263.771 h -2.979 v 12.82 h 2.979 z" style="fill:#a7a5a6;fill-opacity:1;fill-rule:nonzero;stroke:none" id="path52"/><g id="g54" transform="translate(266.0889,263.7707)"><path d="M 0,0 H -2.996 V 10.278 H -6.465 V 12.82 H 3.504 V 10.278 H 0 Z" style="fill:#a7a5a6;fill-opacity:1;fill-rule:nonzero;stroke:none" id="path56"/></g><g id="g58" transform="translate(285.3184,276.591)"><path d="m 0,0 v -7.7 c 0,-1.804 -0.187,-3.014 -0.562,-3.631 -0.703,-1.162 -2.27,-1.744 -4.704,-1.744 -2.409,0 -3.91,0.642 -4.503,1.926 -0.279,0.617 -0.418,1.754 -0.418,3.413 V 0 h 2.978 v -8.317 c 0,-0.847 0.121,-1.429 0.364,-1.744 0.278,-0.386 0.865,-0.581 1.761,-0.581 0.956,0 1.58,0.182 1.87,0.545 0.255,0.327 0.382,0.914 0.382,1.762 V 0 Z" style="fill:#a7a5a6;fill-opacity:1;fill-rule:nonzero;stroke:none" id="path60"/></g><g id="g62" transform="translate(297.3398,263.7707)"><path d="M 0,0 H -2.996 V 10.278 H -6.465 V 12.82 H 3.504 V 10.278 H 0 Z" style="fill:#a7a5a6;fill-opacity:1;fill-rule:nonzero;stroke:none" id="path64"/></g><g id="g66" transform="translate(313.6279,270.217)"><path d="M 0,0 C 0,1.174 -0.088,2.064 -0.263,2.669 -0.438,3.274 -0.699,3.68 -1.044,3.886 -1.389,4.092 -1.895,4.194 -2.56,4.194 -3.153,4.194 -3.629,4.088 -3.985,3.877 -4.343,3.665 -4.627,3.247 -4.839,2.624 -5.051,2 -5.157,1.132 -5.157,0.019 c 0,-1.187 0.103,-2.098 0.309,-2.734 0.205,-0.636 0.481,-1.053 0.827,-1.253 0.344,-0.199 0.819,-0.3 1.424,-0.3 0.449,0 0.818,0.052 1.109,0.155 0.29,0.103 0.556,0.3 0.799,0.59 0.242,0.291 0.418,0.726 0.526,1.307 C -0.054,-1.634 0,-0.896 0,0 m 3.088,0.055 c 0,-1.32 -0.112,-2.419 -0.337,-3.296 C 2.527,-4.119 2.167,-4.809 1.671,-5.312 1.175,-5.813 0.587,-6.168 -0.09,-6.374 c -0.679,-0.205 -1.525,-0.309 -2.543,-0.309 -0.98,0 -1.804,0.1 -2.47,0.3 -0.666,0.2 -1.237,0.551 -1.715,1.053 -0.479,0.503 -0.829,1.193 -1.053,2.07 -0.225,0.878 -0.336,1.977 -0.336,3.296 0,1.319 0.139,2.425 0.417,3.315 0.279,0.889 0.69,1.564 1.235,2.024 0.544,0.46 1.138,0.781 1.78,0.962 0.641,0.182 1.404,0.272 2.288,0.272 0.799,0 1.473,-0.047 2.024,-0.144 C 0.088,6.367 0.603,6.184 1.081,5.91 1.559,5.639 1.937,5.26 2.216,4.775 2.494,4.291 2.709,3.662 2.86,2.888 3.012,2.112 3.088,1.168 3.088,0.055" style="fill:#a7a5a6;fill-opacity:1;fill-rule:nonzero;stroke:none" id="path68"/></g><g id="g70" transform="translate(333.1484,274.0305)"><path d="m 0,0 v -7.699 c 0.352,-0.025 0.829,-0.036 1.435,-0.036 0.714,0 1.283,0.09 1.707,0.271 0.533,0.267 0.895,0.685 1.089,1.254 0.194,0.568 0.29,1.392 0.29,2.469 0,1.053 -0.099,1.841 -0.299,2.361 -0.2,0.521 -0.56,0.896 -1.08,1.125 C 2.729,-0.049 2.106,0.055 1.271,0.055 0.859,0.055 0.436,0.036 0,0 M -2.996,-10.188 V 2.47 c 1.44,0.084 2.699,0.127 3.777,0.127 1.562,0 2.772,-0.127 3.631,-0.382 C 5.502,1.9 6.305,1.253 6.818,0.272 7.333,-0.708 7.59,-2.04 7.59,-3.723 7.59,-5.418 7.357,-6.743 6.892,-7.699 6.425,-8.656 5.593,-9.364 4.395,-9.824 c -0.86,-0.315 -2.156,-0.472 -3.886,-0.472 -1.417,0 -2.585,0.036 -3.505,0.108" style="fill:#a7a5a6;fill-opacity:1;fill-rule:nonzero;stroke:none" id="path72"/></g><g id="g74" transform="translate(355.2119,263.7707)"><path d="m 0,0 h -8.462 v 12.82 h 8.135 V 10.278 H -5.484 V 7.899 h 4.739 V 5.339 H -5.484 V 2.542 H 0 Z" style="fill:#a7a5a6;fill-opacity:1;fill-rule:nonzero;stroke:none" id="path76"/></g><g id="g78" transform="translate(378.1641,264.2062)"><path d="m 0,0 c -1.234,-0.447 -2.894,-0.672 -4.976,-0.672 -1.913,0 -3.31,0.476 -4.194,1.426 -0.884,0.95 -1.325,2.624 -1.325,5.02 0,2.421 0.447,4.168 1.343,5.24 0.895,1.071 2.391,1.606 4.485,1.606 1.537,0 2.857,-0.12 3.959,-0.362 L -0.98,9.951 c -1.041,0.17 -2.101,0.254 -3.178,0.254 -1.162,0 -2.001,-0.303 -2.515,-0.907 -0.515,-0.606 -0.772,-1.695 -0.772,-3.269 0,-1.598 0.229,-2.712 0.69,-3.341 0.46,-0.63 1.229,-0.945 2.306,-0.945 0.617,0 1.169,0.049 1.653,0.146 v 2.233 h -2.07 V 6.628 H 0 Z" style="fill:#a7a5a6;fill-opacity:1;fill-rule:nonzero;stroke:none" id="path80"/></g><g id="g82" transform="translate(392.6357,263.7707)"><path d="m 0,0 h -8.462 v 12.82 h 8.136 V 10.278 H -5.483 V 7.899 h 4.739 V 5.339 H -5.483 V 2.542 H 0 Z" style="fill:#a7a5a6;fill-opacity:1;fill-rule:nonzero;stroke:none" id="path84"/></g><g id="g86" transform="translate(403.5312,271.3605)"><path d="m 0,0 c 1.211,-0.326 2.034,-0.744 2.47,-1.252 0.435,-0.509 0.654,-1.338 0.654,-2.488 0,-1.332 -0.379,-2.346 -1.136,-3.042 -0.756,-0.696 -2.03,-1.044 -3.822,-1.044 -1.658,0 -3.087,0.194 -4.285,0.581 l 0.435,2.288 c 1.38,-0.303 2.663,-0.454 3.85,-0.454 0.738,0 1.238,0.121 1.498,0.363 0.261,0.242 0.391,0.575 0.391,0.999 0,0.4 -0.094,0.696 -0.282,0.89 -0.187,0.193 -0.572,0.357 -1.153,0.49 l -1.507,0.345 c -1.053,0.23 -1.828,0.636 -2.324,1.217 -0.497,0.581 -0.745,1.44 -0.745,2.578 0,1.259 0.369,2.24 1.107,2.942 0.739,0.702 1.962,1.053 3.669,1.053 1.416,0 2.681,-0.127 3.795,-0.381 L 2.324,2.779 C 1.114,2.948 -0.061,3.033 -1.198,3.033 -1.852,3.033 -2.3,2.927 -2.542,2.716 -2.784,2.503 -2.905,2.18 -2.905,1.744 c 0,-0.339 0.082,-0.617 0.245,-0.836 0.163,-0.218 0.505,-0.393 1.026,-0.526 z" style="fill:#a7a5a6;fill-opacity:1;fill-rule:nonzero;stroke:none" id="path88"/></g><g id="g90" transform="translate(417.1504,263.7707)"><path d="m 0,0 h -2.996 v 10.278 h -3.469 v 2.542 h 9.97 V 10.278 H 0 Z" style="fill:#a7a5a6;fill-opacity:1;fill-rule:nonzero;stroke:none" id="path92"/></g><g id="g94" transform="translate(428.7998,269.2551)"><path d="M 0,0 H 2.651 C 1.925,2.529 1.495,4.104 1.362,4.721 1.313,4.515 0.859,2.941 0,0 M -0.627,8.152 -2.334,8.37 c 0.157,0.727 0.418,1.338 0.781,1.835 0.363,0.496 0.823,0.744 1.38,0.744 0.315,0 0.781,-0.127 1.399,-0.382 0.483,-0.229 0.81,-0.344 0.98,-0.344 0.193,0 0.342,0.057 0.444,0.173 0.103,0.114 0.215,0.354 0.336,0.716 L 4.693,10.931 C 4.536,10.107 4.303,9.466 3.994,9.006 3.686,8.546 3.229,8.316 2.623,8.316 2.2,8.316 1.68,8.449 1.062,8.716 0.59,8.909 0.287,9.006 0.154,9.006 -0.016,9.006 -0.158,8.948 -0.272,8.834 -0.388,8.719 -0.506,8.491 -0.627,8.152 M -0.8,-2.452 -1.808,-5.539 -4.915,-5.453 -0.718,7.336 H 3.096 L 7.235,-5.448 3.913,-5.539 3.114,-2.452 Z" style="fill:#a7a5a6;fill-opacity:1;fill-rule:nonzero;stroke:none" id="path96"/></g><g id="g98" transform="translate(448.7285,270.217)"><path d="M 0,0 C 0,1.174 -0.088,2.064 -0.264,2.669 -0.439,3.274 -0.699,3.68 -1.044,3.886 -1.389,4.092 -1.895,4.194 -2.561,4.194 -3.153,4.194 -3.629,4.088 -3.986,3.877 -4.343,3.665 -4.628,3.247 -4.839,2.624 -5.052,2 -5.157,1.132 -5.157,0.019 c 0,-1.187 0.102,-2.098 0.308,-2.734 0.206,-0.636 0.482,-1.053 0.827,-1.253 0.345,-0.199 0.82,-0.3 1.425,-0.3 0.449,0 0.818,0.052 1.108,0.155 0.291,0.103 0.556,0.3 0.799,0.59 0.242,0.291 0.418,0.726 0.527,1.307 C -0.055,-1.634 0,-0.896 0,0 m 3.087,0.055 c 0,-1.32 -0.111,-2.419 -0.336,-3.296 -0.224,-0.878 -0.584,-1.568 -1.08,-2.071 -0.497,-0.501 -1.084,-0.856 -1.762,-1.062 -0.678,-0.205 -1.525,-0.309 -2.542,-0.309 -0.98,0 -1.804,0.1 -2.47,0.3 -0.666,0.2 -1.237,0.551 -1.715,1.053 -0.479,0.503 -0.83,1.193 -1.054,2.07 -0.224,0.878 -0.335,1.977 -0.335,3.296 0,1.319 0.139,2.425 0.417,3.315 0.278,0.889 0.689,1.564 1.235,2.024 0.544,0.46 1.137,0.781 1.78,0.962 0.641,0.182 1.404,0.272 2.287,0.272 0.8,0 1.474,-0.047 2.025,-0.144 C 0.088,6.367 0.602,6.184 1.081,5.91 1.559,5.639 1.937,5.26 2.215,4.775 2.494,4.291 2.709,3.662 2.86,2.888 3.012,2.112 3.087,1.168 3.087,0.055" style="fill:#a7a5a6;fill-opacity:1;fill-rule:nonzero;stroke:none" id="path100"/></g><g id="g102" transform="translate(199.1562,253.6603)"><path d="m 0,0 v -3.16 c 0.229,-0.012 0.568,-0.018 1.017,-0.018 0.726,0 1.264,0.061 1.616,0.182 0.568,0.205 0.853,0.665 0.853,1.38 0,0.799 -0.272,1.295 -0.817,1.489 C 2.342,-0.006 1.834,0.055 1.144,0.055 0.805,0.055 0.423,0.036 0,0 M 0,-10.368 H -2.96 V 2.379 C -1.798,2.451 -0.539,2.487 0.816,2.487 2.56,2.487 3.85,2.313 4.685,1.961 5.919,1.44 6.537,0.303 6.537,-1.453 6.537,-3.438 5.726,-4.667 4.104,-5.139 3.316,-5.369 2.275,-5.484 0.98,-5.484 0.544,-5.484 0.218,-5.478 0,-5.466 Z" style="fill:#a7a5a6;fill-opacity:1;fill-rule:nonzero;stroke:none" id="path104"/></g><g id="g106" transform="translate(216.5156,257.0012)"><path d="m 0,0 -2.143,0.109 2.96,2.833 3.087,-0.128 z m 5.03,-0.89 v -7.699 c 0,-1.804 -0.188,-3.014 -0.563,-3.632 -0.702,-1.162 -2.27,-1.743 -4.703,-1.743 -2.41,0 -3.91,0.642 -4.503,1.925 -0.28,0.618 -0.418,1.756 -0.418,3.414 v 7.735 h 2.977 v -8.316 c 0,-0.848 0.121,-1.429 0.364,-1.743 0.278,-0.388 0.866,-0.581 1.761,-0.581 0.956,0 1.58,0.181 1.87,0.545 0.255,0.327 0.382,0.913 0.382,1.761 v 8.334 z" style="fill:#a7a5a6;fill-opacity:1;fill-rule:nonzero;stroke:none" id="path108"/></g><g id="g110" transform="translate(230.8604,248.7209)"><path d="m 0,0 v -3.014 c 0.702,-0.024 1.241,-0.037 1.617,-0.037 0.641,0 1.118,0.067 1.434,0.2 0.497,0.23 0.745,0.708 0.745,1.435 0,0.629 -0.279,1.047 -0.836,1.253 C 2.67,-0.054 2.137,0 1.362,0 Z m 0,2.307 h 1.308 c 0.677,0 1.149,0.054 1.416,0.163 C 3.208,2.676 3.45,3.081 3.45,3.687 3.45,4.086 3.369,4.38 3.205,4.567 3.042,4.755 2.809,4.892 2.507,4.976 2.216,5.049 1.883,5.085 1.508,5.085 0.854,5.085 0.352,5.072 0,5.049 Z M -2.978,-5.375 V 7.318 C -1.864,7.391 -0.496,7.427 1.126,7.427 1.925,7.427 2.64,7.379 3.27,7.282 4.358,7.148 5.157,6.837 5.666,6.347 6.174,5.856 6.429,5.146 6.429,4.213 6.429,3.426 6.277,2.797 5.975,2.325 5.672,1.853 5.193,1.508 4.54,1.29 6.065,0.951 6.828,-0.048 6.828,-1.706 c 0,-1.648 -0.617,-2.718 -1.852,-3.215 -0.92,-0.363 -2.209,-0.545 -3.868,-0.545 -1.538,0 -2.899,0.03 -4.086,0.091" style="fill:#a7a5a6;fill-opacity:1;fill-rule:nonzero;stroke:none" id="path112"/></g><g id="g114" transform="translate(251.9609,243.2922)"><path d="m 0,0 h -8.462 v 12.819 h 2.979 V 2.542 H 0 Z" style="fill:#a7a5a6;fill-opacity:1;fill-rule:nonzero;stroke:none" id="path116"/></g><path d="m 260.06,243.292 h -2.978 v 12.819 h 2.978 z" style="fill:#a7a5a6;fill-opacity:1;fill-rule:nonzero;stroke:none" id="path118"/><g id="g120" transform="translate(269.6562,253.0432)"><path d="m 0,0 c -0.479,-0.594 -0.717,-1.689 -0.717,-3.287 0,-1.598 0.23,-2.702 0.69,-3.314 0.46,-0.611 1.229,-0.917 2.306,-0.917 0.714,0 1.713,0.073 2.996,0.218 l 0.29,-2.216 C 4.343,-9.83 2.97,-9.987 1.444,-9.987 c -0.847,0 -1.577,0.106 -2.188,0.317 -0.611,0.212 -1.151,0.557 -1.616,1.035 -0.466,0.479 -0.818,1.141 -1.053,1.989 -0.236,0.847 -0.355,1.882 -0.355,3.105 0,2.445 0.421,4.197 1.262,5.257 0.842,1.059 2.298,1.589 4.367,1.589 1.308,0 2.476,-0.091 3.505,-0.273 L 5.112,0.708 C 3.853,0.829 2.97,0.89 2.461,0.89 1.299,0.89 0.479,0.593 0,0" style="fill:#a7a5a6;fill-opacity:1;fill-rule:nonzero;stroke:none" id="path122"/></g><g id="g124" transform="translate(284.4385,248.7756)"><path d="M 0,0 H 2.651 C 1.925,2.53 1.495,4.104 1.361,4.722 1.313,4.516 0.859,2.942 0,0 m -0.801,-2.451 -1.007,-3.087 -3.107,0.085 4.197,12.789 H 3.096 L 7.235,-5.447 3.912,-5.538 3.113,-2.451 Z" style="fill:#a7a5a6;fill-opacity:1;fill-rule:nonzero;stroke:none" id="path126"/></g><g id="g128" transform="translate(312.8652,243.2922)"><path d="m 0,0 h -8.463 v 12.819 h 8.136 V 10.277 H -5.484 V 7.898 h 4.739 V 5.339 H -5.484 V 2.542 H 0 Z" style="fill:#a7a5a6;fill-opacity:1;fill-rule:nonzero;stroke:none" id="path130"/></g><g id="g132" transform="translate(328.917,253.6603)"><path d="m 0,0 v -3.16 c 0.229,-0.012 0.569,-0.018 1.018,-0.018 0.725,0 1.263,0.061 1.615,0.182 0.569,0.205 0.853,0.665 0.853,1.38 0,0.799 -0.272,1.295 -0.816,1.489 C 2.343,-0.006 1.834,0.055 1.145,0.055 0.805,0.055 0.424,0.036 0,0 M 0,-10.368 H -2.96 V 2.379 c 1.162,0.072 2.421,0.108 3.777,0.108 1.744,0 3.033,-0.174 3.868,-0.526 C 5.92,1.44 6.537,0.303 6.537,-1.453 6.537,-3.438 5.726,-4.667 4.104,-5.139 3.317,-5.369 2.276,-5.484 0.98,-5.484 0.545,-5.484 0.218,-5.478 0,-5.466 Z" style="fill:#a7a5a6;fill-opacity:1;fill-rule:nonzero;stroke:none" id="path134"/></g><g id="g136" transform="translate(343.9893,250.3918)"><path d="M 0,0 H 0.926 C 1.664,0 2.215,0.061 2.578,0.182 3.146,0.388 3.432,0.865 3.432,1.616 3.432,2.451 3.171,2.96 2.65,3.142 2.36,3.25 1.906,3.305 1.289,3.305 0.672,3.305 0.242,3.293 0,3.269 Z M 0,-7.1 H -2.96 V 5.665 c 0.859,0.061 2.1,0.091 3.723,0.091 1.755,0 3.038,-0.169 3.849,-0.508 1.246,-0.509 1.87,-1.665 1.87,-3.469 0,-1.731 -0.635,-2.905 -1.906,-3.522 L 7.408,-7.1 4.176,-7.118 1.786,-2.288 C 1.594,-2.3 1.287,-2.307 0.866,-2.307 H 0 Z" style="fill:#a7a5a6;fill-opacity:1;fill-rule:nonzero;stroke:none" id="path138"/></g><g id="g140" transform="translate(364.1816,249.7375)"><path d="M 0,0 C 0,1.175 -0.088,2.064 -0.264,2.67 -0.439,3.275 -0.699,3.681 -1.045,3.887 -1.39,4.092 -1.896,4.195 -2.561,4.195 -3.154,4.195 -3.63,4.089 -3.986,3.877 -4.343,3.666 -4.628,3.248 -4.84,2.625 -5.052,2.001 -5.157,1.132 -5.157,0.019 c 0,-1.187 0.102,-2.097 0.308,-2.733 0.205,-0.636 0.482,-1.054 0.827,-1.253 0.344,-0.2 0.82,-0.3 1.424,-0.3 0.449,0 0.818,0.051 1.109,0.155 0.29,0.102 0.556,0.299 0.799,0.59 0.242,0.291 0.418,0.726 0.526,1.307 C -0.055,-1.634 0,-0.896 0,0 m 3.087,0.055 c 0,-1.32 -0.112,-2.418 -0.336,-3.296 -0.225,-0.877 -0.585,-1.568 -1.08,-2.07 -0.497,-0.502 -1.084,-0.856 -1.762,-1.062 -0.679,-0.206 -1.525,-0.309 -2.543,-0.309 -0.98,0 -1.803,0.1 -2.47,0.3 -0.665,0.199 -1.237,0.55 -1.715,1.053 -0.479,0.502 -0.829,1.192 -1.053,2.07 -0.225,0.878 -0.336,1.976 -0.336,3.296 0,1.319 0.139,2.424 0.418,3.314 0.278,0.89 0.689,1.565 1.234,2.025 0.545,0.459 1.138,0.78 1.78,0.962 0.641,0.182 1.404,0.272 2.288,0.272 0.799,0 1.473,-0.048 2.024,-0.145 C 0.087,6.368 0.602,6.184 1.08,5.911 1.558,5.639 1.937,5.261 2.215,4.776 2.493,4.292 2.708,3.662 2.859,2.888 3.011,2.113 3.087,1.169 3.087,0.055" style="fill:#a7a5a6;fill-opacity:1;fill-rule:nonzero;stroke:none" id="path142"/></g><g id="g144" transform="translate(376.584,244.6906)"><path d="m 0,0 c 0,-1.32 -0.272,-2.288 -0.817,-2.906 -0.776,-0.835 -2.167,-1.301 -4.177,-1.399 l -0.235,2.252 c 0.834,0.121 1.446,0.322 1.833,0.6 0.278,0.193 0.417,0.636 0.417,1.325 V 11.421 H 0 Z" style="fill:#a7a5a6;fill-opacity:1;fill-rule:nonzero;stroke:none" id="path146"/></g><g id="g148" transform="translate(391.4736,243.2922)"><path d="m 0,0 h -8.462 v 12.819 h 8.135 V 10.277 H -5.483 V 7.898 h 4.739 V 5.339 H -5.483 V 2.542 H 0 Z" style="fill:#a7a5a6;fill-opacity:1;fill-rule:nonzero;stroke:none" id="path150"/></g><g id="g152" transform="translate(402.46,243.2922)"><path d="m 0,0 h -2.996 v 10.277 h -3.469 v 2.542 H 3.504 V 10.277 H 0 Z" style="fill:#a7a5a6;fill-opacity:1;fill-rule:nonzero;stroke:none" id="path154"/></g><g id="g156" transform="translate(418.748,249.7375)"><path d="m 0,0 c 0,1.175 -0.088,2.064 -0.264,2.67 -0.175,0.605 -0.435,1.011 -0.78,1.217 -0.345,0.205 -0.851,0.308 -1.517,0.308 -0.592,0 -1.068,-0.106 -1.425,-0.318 C -4.343,3.666 -4.628,3.248 -4.84,2.625 -5.052,2.001 -5.157,1.132 -5.157,0.019 c 0,-1.187 0.102,-2.097 0.308,-2.733 0.206,-0.636 0.482,-1.054 0.827,-1.253 0.345,-0.2 0.82,-0.3 1.425,-0.3 0.449,0 0.818,0.051 1.108,0.155 0.291,0.102 0.556,0.299 0.799,0.59 0.242,0.291 0.418,0.726 0.526,1.307 C -0.055,-1.634 0,-0.896 0,0 m 3.087,0.055 c 0,-1.32 -0.111,-2.418 -0.336,-3.296 -0.224,-0.877 -0.584,-1.568 -1.08,-2.07 -0.497,-0.502 -1.084,-0.856 -1.762,-1.062 -0.678,-0.206 -1.525,-0.309 -2.542,-0.309 -0.98,0 -1.804,0.1 -2.47,0.3 -0.666,0.199 -1.238,0.55 -1.715,1.053 -0.479,0.502 -0.83,1.192 -1.054,2.07 -0.224,0.878 -0.336,1.976 -0.336,3.296 0,1.319 0.139,2.424 0.418,3.314 0.278,0.89 0.689,1.565 1.234,2.025 0.545,0.459 1.138,0.78 1.78,0.962 0.642,0.182 1.405,0.272 2.288,0.272 0.8,0 1.473,-0.048 2.025,-0.145 C 0.088,6.368 0.602,6.184 1.081,5.911 1.559,5.639 1.937,5.261 2.215,4.776 2.493,4.292 2.709,3.662 2.86,2.888 3.012,2.113 3.087,1.169 3.087,0.055" style="fill:#a7a5a6;fill-opacity:1;fill-rule:nonzero;stroke:none" id="path158"/></g><g id="g160" transform="translate(432.9297,250.882)"><path d="m 0,0 c 1.211,-0.327 2.034,-0.744 2.47,-1.253 0.435,-0.509 0.654,-1.338 0.654,-2.487 0,-1.332 -0.379,-2.346 -1.136,-3.042 -0.756,-0.697 -2.03,-1.044 -3.822,-1.044 -1.658,0 -3.087,0.193 -4.285,0.581 l 0.435,2.288 c 1.38,-0.303 2.663,-0.454 3.85,-0.454 0.738,0 1.238,0.121 1.498,0.363 0.261,0.242 0.391,0.574 0.391,0.998 0,0.401 -0.094,0.696 -0.282,0.891 -0.188,0.193 -0.572,0.356 -1.153,0.489 l -1.507,0.346 c -1.053,0.229 -1.828,0.636 -2.324,1.217 -0.497,0.581 -0.745,1.44 -0.745,2.578 0,1.259 0.369,2.239 1.107,2.941 0.739,0.702 1.962,1.054 3.669,1.054 1.416,0 2.681,-0.127 3.795,-0.382 L 2.324,2.778 C 1.114,2.947 -0.061,3.032 -1.198,3.032 -1.852,3.032 -2.3,2.927 -2.542,2.715 -2.784,2.503 -2.905,2.179 -2.905,1.743 c 0,-0.339 0.082,-0.617 0.245,-0.835 0.163,-0.218 0.505,-0.393 1.026,-0.527 z" style="fill:#a7a5a6;fill-opacity:1;fill-rule:nonzero;stroke:none" id="path162"/></g><g id="g164" transform="translate(178.9443,345.3766)"><path d="m 0,0 c 1.625,-4.265 0.761,-9.31 -2.386,-12.658 -3.329,-3.713 -8.823,-4.889 -13.438,-3.082 -5.13,1.886 -8.283,7.399 -7.588,12.782 0.547,5.513 5.182,10.084 10.683,10.617 C -7.288,8.309 -1.964,5.104 0,0" style="fill:#3572c2;fill-opacity:1;fill-rule:nonzero;stroke:none" id="path166"/></g><g id="g168" transform="translate(175.6201,319.3605)"><path d="m 0,0 c 0.735,-4.206 -1.371,-7.839 -4.37,-10.588 -3.054,-2.655 -6.28,-5.121 -9.351,-7.768 -3.79,4.322 -7.455,8.755 -11.221,13.093 -2.788,3.18 -6.861,5.56 -11.207,5.255 -3.368,-0.266 -5.741,-2.2 -8.137,-4.369 -5.137,-4.691 -26.345,-23.296 -31.505,-27.964 -2.78,3.266 -5.67,6.445 -8.411,9.742 -1.308,1.543 -1.982,3.438 -1.66,5.467 0.493,3.297 2.749,6.061 5.161,8.215 8.363,7.298 32.726,28.589 41.059,35.927 2.327,1.997 4.19,4.135 7.409,4.581 4.346,0.642 7.431,-1.511 10.603,-4.112 -0.972,-2.333 -1.895,-4.542 -1.794,-7.142 -0.094,-4.51 2.922,-8.817 6.367,-11.48 C -13.078,6.006 -8.678,6.116 -4.025,6.782 -2.24,4.667 -0.51,2.835 0,0" style="fill:#3572c2;fill-opacity:1;fill-rule:nonzero;stroke:none" id="path170"/></g><g id="g172" transform="translate(170.4336,242.5988)"><path d="m 0,0 c -4.266,-1.625 -9.311,-0.761 -12.658,2.386 -3.713,3.329 -4.89,8.823 -3.082,13.439 1.886,5.129 7.398,8.282 12.782,7.587 C 2.555,22.866 7.125,18.23 7.658,12.73 8.309,7.288 5.104,1.964 0,0" style="fill:#3572c2;fill-opacity:1;fill-rule:nonzero;stroke:none" id="path174"/></g><g id="g176" transform="translate(66.9336,251.3088)"><path d="m 0,0 c -1.625,4.265 -0.761,9.31 2.386,12.658 3.329,3.712 8.823,4.889 13.438,3.081 5.13,-1.885 8.283,-7.398 7.588,-12.781 C 22.866,-2.556 18.23,-7.126 12.73,-7.659 7.288,-8.31 1.964,-5.104 0,0" style="fill:#3572c2;fill-opacity:1;fill-rule:nonzero;stroke:none" id="path178"/></g><g id="g180" transform="translate(70.2578,277.3244)"><path d="m 0,0 c -0.735,4.206 1.371,7.839 4.37,10.588 3.055,2.655 6.28,5.122 9.351,7.768 3.79,-4.322 7.455,-8.754 11.221,-13.093 2.788,-3.18 6.861,-5.56 11.207,-5.255 3.368,0.266 5.741,2.201 8.137,4.37 5.137,4.69 10.345,9.296 15.505,13.963 2.78,-3.266 5.67,-6.445 8.411,-9.742 1.308,-1.542 1.982,-3.438 1.66,-5.466 -0.493,-3.297 -2.749,-6.062 -5.16,-8.215 -8.364,-7.299 -16.727,-14.59 -25.06,-21.928 -2.326,-1.997 -4.19,-4.135 -7.409,-4.581 -4.345,-0.641 -7.431,1.512 -10.603,4.112 0.972,2.333 1.895,4.542 1.794,7.142 0.094,4.511 -2.922,8.817 -6.367,11.481 -3.979,2.85 -8.379,2.74 -13.032,2.075 C 2.24,-4.667 0.51,-2.835 0,0" style="fill:#a7a5a6;fill-opacity:1;fill-rule:nonzero;stroke:none" id="path182"/></g><g id="g184" transform="translate(75.4443,354.0861)"><path d="m 0,0 c 4.266,1.625 9.311,0.761 12.658,-2.386 3.713,-3.329 4.89,-8.822 3.082,-13.438 -1.886,-5.13 -7.398,-8.283 -12.781,-7.588 -5.514,0.546 -10.084,5.182 -10.617,10.682 C -8.309,-7.288 -5.104,-1.963 0,0" style="fill:#3572c2;fill-opacity:1;fill-rule:nonzero;stroke:none" id="path186"/></g><g id="g188" transform="translate(101.4609,350.7619)"><path d="m 0,0 c 4.205,0.736 7.839,-1.371 10.588,-4.37 2.654,-3.054 5.121,-6.28 7.768,-9.35 -4.323,-3.791 -8.755,-7.456 -13.093,-11.222 -3.18,-2.788 -5.561,-6.861 -5.255,-11.207 0.266,-3.367 2.2,-5.74 4.37,-8.137 4.69,-5.137 9.295,-10.345 13.963,-15.505 -3.266,-2.78 -6.445,-5.67 -9.742,-8.411 -1.543,-1.308 -3.438,-1.982 -5.466,-1.66 -3.297,0.493 -6.062,2.749 -8.215,5.161 -7.299,8.363 -14.59,16.727 -21.928,25.059 -1.997,2.326 -4.135,4.19 -4.581,7.409 -0.642,4.346 1.512,7.431 4.112,10.603 2.333,-0.971 4.542,-1.895 7.141,-1.793 4.511,-0.094 8.818,2.921 11.481,6.366 2.85,3.979 2.741,8.38 2.075,13.032 C -4.667,-2.24 -2.835,-0.509 0,0" style="fill:#a7a5a6;fill-opacity:1;fill-rule:nonzero;stroke:none" id="path190"/></g><g id="g192" transform="translate(144.417,245.923)"><path d="m 0,0 c -4.205,-0.735 -7.839,1.371 -10.588,4.37 -2.654,3.055 -5.121,6.28 -7.768,9.351 4.323,3.79 8.755,7.455 13.093,11.221 3.18,2.788 5.561,6.861 5.255,11.207 -0.266,3.368 -2.2,5.741 -4.37,8.137 -4.69,5.137 -9.295,10.345 -13.963,15.506 3.266,2.78 6.445,5.669 9.742,8.41 1.543,1.308 3.438,1.982 5.466,1.66 3.297,-0.493 6.062,-2.748 8.215,-5.16 7.299,-8.364 14.59,-16.727 21.928,-25.06 1.997,-2.326 4.135,-4.19 4.581,-7.409 0.642,-4.345 -1.511,-7.431 -4.112,-10.603 -2.333,0.972 -4.542,1.895 -7.141,1.794 C 15.827,23.518 11.52,20.503 8.857,17.057 6.007,13.078 6.116,8.678 6.782,4.025 4.667,2.24 2.835,0.51 0,0" style="fill:#a7a5a6;fill-opacity:1;fill-rule:nonzero;stroke:none" id="path194"/></g></g></g></svg>